<?xml version="1.0" standalone="no"?>
<!DOCTYPE svg PUBLIC "-//W3C//DTD SVG 20010904//EN"
 "http://www.w3.org/TR/2001/REC-SVG-20010904/DTD/svg10.dtd">
<svg version="1.0" xmlns="http://www.w3.org/2000/svg"
 width="1920.000000pt" height="1080.000000pt" viewBox="0 0 1920.000000 1080.000000"
 preserveAspectRatio="xMidYMid meet">

<g transform="translate(0.000000,1080.000000) scale(0.100000,-0.100000)"
fill="#000000" stroke="none">
<path d="M5057 9706 c-98 -35 -167 -112 -187 -210 -7 -35 -9 -1282 -8 -4096
l3 -4045 24 -53 c29 -64 95 -125 158 -146 42 -14 478 -16 4553 -16 4075 0
4511 2 4553 16 63 21 129 82 158 146 l24 53 0 4075 0 4075 -28 57 c-30 61 -64
95 -131 131 l-41 22 -4520 2 c-3784 2 -4526 0 -4558 -11z m8983 -4276 l0
-3990 -4440 0 -4440 0 0 3990 0 3990 4440 0 4440 0 0 -3990z"/>
<path d="M9503 7540 c-167 -25 -309 -143 -362 -302 -36 -107 -41 -210 -41
-783 l1 -550 -618 -6 c-663 -5 -641 -4 -760 -61 -69 -33 -158 -119 -192 -186
-55 -109 -66 -303 -23 -424 62 -172 211 -291 400 -318 37 -5 320 -10 629 -10
l561 0 5 -612 c4 -543 6 -620 21 -672 68 -233 232 -356 472 -356 201 1 349 83
432 238 67 125 66 114 70 789 l3 612 607 3 c540 4 614 6 666 21 172 50 288
168 331 334 30 114 13 298 -36 394 -45 90 -144 172 -264 220 l-60 24 -622 3
-622 3 -3 612 c-4 669 -3 659 -66 786 -33 68 -120 157 -190 195 -86 45 -219
63 -339 46z"/>
</g>
</svg>
